<mxfile host="app.diagrams.net" agent="Mozilla/5.0 (Windows NT 10.0; Win64; x64) AppleWebKit/537.36 (KHTML, like Gecko) Chrome/131.0.0.0 Safari/537.36" version="25.0.3">
  <diagram name="Page-1" id="EvRG-hZR43vVBjaNNgFk">
    <mxGraphModel dx="2165" dy="1097" grid="1" gridSize="10" guides="1" tooltips="1" connect="1" arrows="1" fold="1" page="1" pageScale="1" pageWidth="1100" pageHeight="850" math="0" shadow="0">
      <root>
        <mxCell id="0" />
        <mxCell id="1" parent="0" />
        <mxCell id="flURuqImQMFF-co7oljp-1" value="" style="rounded=1;whiteSpace=wrap;html=1;" vertex="1" parent="1">
          <mxGeometry x="479" y="40" width="160" height="79" as="geometry" />
        </mxCell>
        <mxCell id="flURuqImQMFF-co7oljp-2" value="MNP dataset&lt;div&gt;&lt;i&gt;n&lt;/i&gt;=177&lt;/div&gt;" style="text;html=1;align=center;verticalAlign=middle;whiteSpace=wrap;rounded=0;fillColor=default;fontSize=20;" vertex="1" parent="1">
          <mxGeometry x="480" y="64.5" width="150" height="30" as="geometry" />
        </mxCell>
        <mxCell id="flURuqImQMFF-co7oljp-4" value="" style="endArrow=none;html=1;rounded=0;" edge="1" parent="1">
          <mxGeometry width="50" height="50" relative="1" as="geometry">
            <mxPoint x="560" y="160" as="sourcePoint" />
            <mxPoint x="560" y="120" as="targetPoint" />
          </mxGeometry>
        </mxCell>
        <mxCell id="flURuqImQMFF-co7oljp-5" value="" style="endArrow=none;html=1;rounded=0;" edge="1" parent="1">
          <mxGeometry width="50" height="50" relative="1" as="geometry">
            <mxPoint x="439" y="160" as="sourcePoint" />
            <mxPoint x="679" y="160" as="targetPoint" />
            <Array as="points" />
          </mxGeometry>
        </mxCell>
        <mxCell id="flURuqImQMFF-co7oljp-6" value="" style="rounded=1;whiteSpace=wrap;html=1;" vertex="1" parent="1">
          <mxGeometry x="279" y="120" width="160" height="80" as="geometry" />
        </mxCell>
        <mxCell id="flURuqImQMFF-co7oljp-7" value="Preterm&lt;div&gt;&lt;i&gt;n&lt;/i&gt;=87&lt;/div&gt;" style="text;html=1;align=center;verticalAlign=middle;whiteSpace=wrap;rounded=0;fillColor=default;fontSize=20;" vertex="1" parent="1">
          <mxGeometry x="330" y="145" width="60" height="30" as="geometry" />
        </mxCell>
        <mxCell id="flURuqImQMFF-co7oljp-8" value="" style="rounded=1;whiteSpace=wrap;html=1;" vertex="1" parent="1">
          <mxGeometry x="679" y="120" width="160" height="80" as="geometry" />
        </mxCell>
        <mxCell id="flURuqImQMFF-co7oljp-9" value="Term&lt;div&gt;&lt;i&gt;n&lt;/i&gt;=90&lt;/div&gt;" style="text;html=1;align=center;verticalAlign=middle;whiteSpace=wrap;rounded=0;fillColor=default;fontSize=20;" vertex="1" parent="1">
          <mxGeometry x="730" y="145" width="60" height="30" as="geometry" />
        </mxCell>
        <mxCell id="flURuqImQMFF-co7oljp-10" value="" style="endArrow=none;html=1;rounded=0;" edge="1" parent="1">
          <mxGeometry width="50" height="50" relative="1" as="geometry">
            <mxPoint x="361" y="240" as="sourcePoint" />
            <mxPoint x="361" y="200" as="targetPoint" />
          </mxGeometry>
        </mxCell>
        <mxCell id="flURuqImQMFF-co7oljp-11" value="" style="endArrow=none;html=1;rounded=0;" edge="1" parent="1">
          <mxGeometry width="50" height="50" relative="1" as="geometry">
            <mxPoint x="240" y="240" as="sourcePoint" />
            <mxPoint x="480" y="240" as="targetPoint" />
            <Array as="points" />
          </mxGeometry>
        </mxCell>
        <mxCell id="flURuqImQMFF-co7oljp-13" value="" style="rounded=1;whiteSpace=wrap;html=1;" vertex="1" parent="1">
          <mxGeometry x="-121" y="280" width="160" height="80" as="geometry" />
        </mxCell>
        <mxCell id="flURuqImQMFF-co7oljp-14" value="" style="endArrow=none;html=1;rounded=0;" edge="1" parent="1">
          <mxGeometry width="50" height="50" relative="1" as="geometry">
            <mxPoint x="39" y="320" as="sourcePoint" />
            <mxPoint x="279" y="320" as="targetPoint" />
            <Array as="points" />
          </mxGeometry>
        </mxCell>
        <mxCell id="flURuqImQMFF-co7oljp-15" value="" style="endArrow=none;html=1;rounded=0;" edge="1" parent="1">
          <mxGeometry width="50" height="50" relative="1" as="geometry">
            <mxPoint x="160" y="320" as="sourcePoint" />
            <mxPoint x="160" y="280" as="targetPoint" />
          </mxGeometry>
        </mxCell>
        <mxCell id="flURuqImQMFF-co7oljp-16" value="" style="rounded=1;whiteSpace=wrap;html=1;" vertex="1" parent="1">
          <mxGeometry x="279" y="280" width="160" height="80" as="geometry" />
        </mxCell>
        <mxCell id="flURuqImQMFF-co7oljp-17" value="" style="rounded=1;whiteSpace=wrap;html=1;" vertex="1" parent="1">
          <mxGeometry x="79" y="200" width="160" height="79" as="geometry" />
        </mxCell>
        <mxCell id="flURuqImQMFF-co7oljp-18" value="n=177" style="text;html=1;align=center;verticalAlign=middle;whiteSpace=wrap;rounded=0;fillColor=default;fontSize=20;" vertex="1" parent="1">
          <mxGeometry x="80" y="210" width="150" height="60" as="geometry" />
        </mxCell>
        <mxCell id="flURuqImQMFF-co7oljp-19" value="n=177" style="text;html=1;align=center;verticalAlign=middle;whiteSpace=wrap;rounded=0;fillColor=default;fontSize=20;" vertex="1" parent="1">
          <mxGeometry x="330" y="305" width="60" height="30" as="geometry" />
        </mxCell>
        <mxCell id="flURuqImQMFF-co7oljp-20" value="n=177" style="text;html=1;align=center;verticalAlign=middle;whiteSpace=wrap;rounded=0;fillColor=default;fontSize=20;" vertex="1" parent="1">
          <mxGeometry x="-70" y="305" width="60" height="30" as="geometry" />
        </mxCell>
        <mxCell id="flURuqImQMFF-co7oljp-21" value="" style="rounded=1;whiteSpace=wrap;html=1;" vertex="1" parent="1">
          <mxGeometry x="480" y="200" width="160" height="80" as="geometry" />
        </mxCell>
        <mxCell id="flURuqImQMFF-co7oljp-22" value="n=177" style="text;html=1;align=center;verticalAlign=middle;whiteSpace=wrap;rounded=0;fillColor=default;fontSize=20;" vertex="1" parent="1">
          <mxGeometry x="531" y="225" width="60" height="30" as="geometry" />
        </mxCell>
      </root>
    </mxGraphModel>
  </diagram>
</mxfile>
